<?xml version="1.0" encoding="UTF-8" standalone="no"?>
<svg
   xmlns:dc="http://purl.org/dc/elements/1.1/"
   xmlns:cc="http://creativecommons.org/ns#"
   xmlns:rdf="http://www.w3.org/1999/02/22-rdf-syntax-ns#"
   xmlns:svg="http://www.w3.org/2000/svg"
   xmlns="http://www.w3.org/2000/svg"
   xmlns:xlink="http://www.w3.org/1999/xlink"
   xmlns:sodipodi="http://sodipodi.sourceforge.net/DTD/sodipodi-0.dtd"
   xmlns:inkscape="http://www.inkscape.org/namespaces/inkscape"
   width="1024"
   height="768"
   viewBox="0 0 270.93332 203.2"
   version="1.1"
   id="svg8"
   inkscape:version="1.0.1 (3bc2e813f5, 2020-09-07)"
   sodipodi:docname="pics.svg"
   inkscape:export-filename="/home/pviktori/dev/mufl/pics.png"
   inkscape:export-xdpi="96"
   inkscape:export-ydpi="96">
  <defs
     id="defs2">
    <linearGradient
       inkscape:collect="always"
       id="linearGradient950">
      <stop
         style="stop-color:#d7ff01;stop-opacity:1"
         offset="0"
         id="stop946" />
      <stop
         style="stop-color:#10ffca;stop-opacity:1"
         offset="1"
         id="stop948" />
    </linearGradient>
    <linearGradient
       inkscape:collect="always"
       id="linearGradient865">
      <stop
         style="stop-color:#f2f4f4;stop-opacity:1"
         offset="0"
         id="stop861" />
      <stop
         style="stop-color:#a3fcff;stop-opacity:1"
         offset="0.06856609"
         id="stop869" />
      <stop
         style="stop-color:#27b6ff;stop-opacity:1"
         offset="0.27811036"
         id="stop877" />
      <stop
         style="stop-color:#1489fb;stop-opacity:1"
         offset="0.54386163"
         id="stop871" />
      <stop
         style="stop-color:#0800f9;stop-opacity:1"
         offset="0.78982109"
         id="stop873" />
      <stop
         style="stop-color:#000000;stop-opacity:1"
         offset="0.95546931"
         id="stop875" />
      <stop
         style="stop-color:#6e6e6e;stop-opacity:1"
         offset="1"
         id="stop863" />
    </linearGradient>
    <linearGradient
       inkscape:collect="always"
       xlink:href="#linearGradient865"
       id="linearGradient867"
       x1="262.46667"
       y1="0"
       x2="262.46667"
       y2="16.933332"
       gradientUnits="userSpaceOnUse" />
    <filter
       inkscape:collect="always"
       style="color-interpolation-filters:sRGB"
       id="filter1007"
       x="-0.03072"
       width="1.06144"
       y="-0.03072"
       height="1.06144">
      <feGaussianBlur
         inkscape:collect="always"
         stdDeviation="0.18965333"
         id="feGaussianBlur1009" />
    </filter>
    <linearGradient
       inkscape:collect="always"
       xlink:href="#linearGradient950"
       id="linearGradient952"
       x1="255.05833"
       y1="25.4"
       x2="267.75833"
       y2="25.4"
       gradientUnits="userSpaceOnUse"
       gradientTransform="matrix(-1,0,0,1,524.93334,0)" />
  </defs>
  <sodipodi:namedview
     id="base"
     pagecolor="#ffffff"
     bordercolor="#666666"
     borderopacity="1.0"
     inkscape:pageopacity="0"
     inkscape:pageshadow="2"
     inkscape:zoom="11.189315"
     inkscape:cx="995.88801"
     inkscape:cy="102.15639"
     inkscape:document-units="mm"
     inkscape:current-layer="layer1"
     inkscape:document-rotation="0"
     showgrid="true"
     units="px"
     inkscape:pagecheckerboard="true"
     inkscape:window-width="1920"
     inkscape:window-height="1043"
     inkscape:window-x="0"
     inkscape:window-y="0"
     inkscape:window-maximized="1"
     inkscape:snap-bbox="false"
     inkscape:object-paths="true"
     inkscape:snap-smooth-nodes="true"
     inkscape:snap-bbox-midpoints="true"
     inkscape:snap-intersection-paths="true"
     inkscape:snap-midpoints="true"
     inkscape:snap-grids="true">
    <inkscape:grid
       type="xygrid"
       id="grid833"
       spacingx="4.2333333"
       spacingy="4.2333333"
       empspacing="4" />
    <inkscape:grid
       type="xygrid"
       id="grid857"
       empspacing="4"
       color="#000000"
       opacity="0.1254902"
       empcolor="#000000"
       empopacity="0.13333333" />
  </sodipodi:namedview>
  <metadata
     id="metadata5">
    <rdf:RDF>
      <cc:Work
         rdf:about="">
        <dc:format>image/svg+xml</dc:format>
        <dc:type
           rdf:resource="http://purl.org/dc/dcmitype/StillImage" />
        <dc:title></dc:title>
      </cc:Work>
    </rdf:RDF>
  </metadata>
  <g
     inkscape:label="Layer 1"
     inkscape:groupmode="layer"
     id="layer1">
    <rect
       style="fill:#ffffff;fill-opacity:0.01;fill-rule:evenodd;stroke:none;stroke-width:0.374177;stroke-linejoin:bevel;stroke-miterlimit:4;stroke-dasharray:none;paint-order:normal"
       id="rect936"
       width="50.799999"
       height="8.4666672"
       x="1.4802974e-15"
       y="16.933332" />
    <path
       style="fill:#ffffff;stroke:#000000;stroke-width:0.264583px;stroke-linecap:butt;stroke-linejoin:miter;stroke-opacity:1"
       d="m 130.175,9.5249999 c 2.11666,0 4.23333,-2.1166667 4.23333,-3.175 0,-1.0583333 0,7.4083331 0,6.3500001 0,-1.058333 -2.11667,-3.1750001 -4.23333,-3.1750001 z"
       id="path928" />
    <path
       style="fill:#ffffff;stroke:#000000;stroke-width:0.264583px;stroke-linecap:butt;stroke-linejoin:miter;stroke-opacity:1"
       d="M 93.521818,6.2220159 92.700809,3.7067865 93.450157,4.2971539 93.624801,3.12686 94.45625,3.96875 94.712993,3.0499797 95.534002,5.5652092 Z"
       id="path957"
       sodipodi:nodetypes="cccccccc" />
    <path
       style="fill:#ffffff;stroke:#000000;stroke-width:0.264583px;stroke-linecap:butt;stroke-linejoin:miter;stroke-opacity:1"
       d="m 14.2875,13.229167 c 0.79375,0.529166 2.116667,1.5875 2.645833,1.058333 C 17.4625,13.758334 16.404166,12.7 16.139583,12.435417"
       id="path919"
       sodipodi:nodetypes="csc" />
    <path
       style="fill:#ffffff;stroke:#000000;stroke-width:0.264583px;stroke-linecap:butt;stroke-linejoin:miter;stroke-opacity:1"
       d="m 11.1125,4.2333333 c 1.058333,-1.8520833 3.175,-2.38125 5.820833,-2.38125 2.645834,0 2.381251,3.4395834 0.264584,3.4395834"
       id="path917"
       sodipodi:nodetypes="csc" />
    <rect
       style="fill:#ffffff;fill-opacity:0.01;fill-rule:evenodd;stroke:none;stroke-width:0.374177;stroke-linejoin:bevel;stroke-miterlimit:4;stroke-dasharray:none;paint-order:normal"
       id="rect905"
       width="25.4"
       height="8.4666662"
       x="8.8817842e-16"
       y="16.933332" />
    <path
       style="fill:#ffffff;stroke:#000000;stroke-width:0.26458299;stroke-linecap:butt;stroke-linejoin:miter;stroke-opacity:1;stroke-miterlimit:4;stroke-dasharray:none"
       d="m 4.2333333,8.4666666 c 8.4666667,-8.46667 16.9333327,-4.23334 21.1666657,0 4.233334,4.2333304 4.233334,4.2333304 4.233334,4.2333304 V 4.2333266 c 0,0 0,0 -4.233334,4.23334 -4.233333,4.2333304 -12.699999,8.4666604 -21.1666657,0 z"
       id="path835"
       inkscape:export-xdpi="96"
       inkscape:export-ydpi="96" />
    <path
       style="fill:none;stroke:#000000;stroke-width:0.264583px;stroke-linecap:butt;stroke-linejoin:miter;stroke-opacity:1"
       d="m 35.127128,3.437576 c 1.322917,1.8520833 0.713343,-2.0103294 0,-10e-8 -2.700347,7.6100671 2.798925,8.1593521 2.972872,5.0290908 0.01353,-0.2435149 -0.0052,-0.509298 -0.06246,-0.7957574 -0.264583,0.79375 -0.529166,0.529167 -0.529166,0.529167"
       id="path855"
       sodipodi:nodetypes="csscc" />
    <rect
       style="fill:url(#linearGradient867);fill-rule:evenodd;stroke:none;stroke-width:0.264583;paint-order:stroke fill markers;fill-opacity:1"
       id="rect859"
       width="16.933334"
       height="16.933332"
       x="254"
       y="0" />
    <path
       id="path879"
       style="fill:#000000;stroke:#000000;stroke-width:1.00000001;stroke-linecap:round;stroke-linejoin:round;stroke-miterlimit:4;stroke-dasharray:none;stroke-opacity:1"
       d="M 29,42.000001 C 32,39 32,38 32,32 c 0,0 -3.912989,3.899668 -11.724609,3.992188"
       transform="scale(0.26458333)"
       sodipodi:nodetypes="ccc" />
    <ellipse
       style="fill:#808080;fill-opacity:1;fill-rule:evenodd;stroke:#000000;stroke-width:0.26458333;paint-order:normal;stroke-miterlimit:4;stroke-dasharray:none"
       id="path881"
       cx="8.9958334"
       cy="6.8791666"
       rx="0.5291667"
       ry="0.52916664" />
    <path
       style="fill:none;stroke:#000000;stroke-width:0.264583px;stroke-linecap:butt;stroke-linejoin:miter;stroke-opacity:1"
       d="m 13.49375,5.0270833 c 2.116667,2.1166667 2.116667,4.7624997 0,6.8791667"
       id="path885"
       sodipodi:nodetypes="cc" />
    <path
       style="color:#000000;font-style:normal;font-variant:normal;font-weight:normal;font-stretch:normal;font-size:medium;line-height:normal;font-family:sans-serif;font-variant-ligatures:normal;font-variant-position:normal;font-variant-caps:normal;font-variant-numeric:normal;font-variant-alternates:normal;font-variant-east-asian:normal;font-feature-settings:normal;font-variation-settings:normal;text-indent:0;text-align:start;text-decoration:none;text-decoration-line:none;text-decoration-style:solid;text-decoration-color:#000000;letter-spacing:normal;word-spacing:normal;text-transform:none;writing-mode:lr-tb;direction:ltr;text-orientation:mixed;dominant-baseline:auto;baseline-shift:baseline;text-anchor:start;white-space:normal;shape-padding:0;shape-margin:0;inline-size:0;clip-rule:nonzero;display:inline;overflow:visible;visibility:visible;isolation:auto;mix-blend-mode:normal;color-interpolation:sRGB;color-interpolation-filters:linearRGB;solid-color:#000000;solid-opacity:1;vector-effect:none;fill:#ffffff;fill-opacity:1;fill-rule:nonzero;stroke:none;stroke-width:0.264583;stroke-linecap:butt;stroke-linejoin:miter;stroke-miterlimit:4;stroke-dasharray:none;stroke-dashoffset:0;stroke-opacity:1;color-rendering:auto;image-rendering:auto;shape-rendering:auto;text-rendering:auto;enable-background:accumulate;stop-color:#000000"
       d="m 7.4083333,26.427069 c 0,0 -1.0353117,1.031787 -3.1021361,1.056266 1.0395913,0.904632 2.0761033,1.619658 3.1021361,2.181263 l 4.2333337,-0.06253 -3.9687503,-3.175 z"
       id="path896"
       sodipodi:nodetypes="cccccc" />
    <path
       style="fill:none;stroke:#ffffff;stroke-width:0.264583px;stroke-linecap:butt;stroke-linejoin:miter;stroke-opacity:1"
       d="m 35.656294,3.437576 c 0,-1.3229167 1.5875,-1.0583333 0,0 z"
       id="path911" />
    <path
       style="fill:none;stroke:#ffffff;stroke-width:0.264583px;stroke-linecap:butt;stroke-linejoin:miter;stroke-opacity:1"
       d="m 35.656294,3.437576 c 0,-1.3229167 -1.5875,-1.0583333 0,0 z"
       id="path913" />
    <path
       style="fill:#ffffff;stroke:#000000;stroke-width:0.264583px;stroke-linecap:butt;stroke-linejoin:miter;stroke-opacity:1"
       d="m 12.7,20.6375 c 1.058333,-0.529167 3.175,-0.79375 2.645833,0.79375 -0.529166,1.5875 -1.852083,0.529167 -2.645833,0.264583"
       id="path915" />
    <path
       style="fill:none;stroke:#000000;stroke-width:0.26458333;stroke-linecap:round;stroke-linejoin:miter;stroke-opacity:1;stroke-miterlimit:4;stroke-dasharray:none"
       d="m 43.593794,3.437576 c 1.322917,1.8520833 0.713343,-2.0103294 0,-10e-8 -2.700347,7.6100671 2.798925,8.1593521 2.972872,5.0290908"
       id="path927"
       sodipodi:nodetypes="csc" />
    <path
       style="fill:none;stroke:#ffffff;stroke-width:0.264583px;stroke-linecap:butt;stroke-linejoin:miter;stroke-opacity:1"
       d="m 44.12296,3.437576 c 0,-1.3229167 1.5875,-1.0583333 0,0 z"
       id="path929" />
    <path
       style="fill:none;stroke:#ffffff;stroke-width:0.264583px;stroke-linecap:butt;stroke-linejoin:miter;stroke-opacity:1"
       d="m 44.12296,3.437576 c 0,-1.3229167 -1.5875,-1.0583333 0,0 z"
       id="path931" />
    <ellipse
       style="fill:#ffffff;fill-opacity:1;fill-rule:evenodd;stroke:none;stroke-width:0.396874;stroke-linecap:round;stroke-linejoin:round;stroke-miterlimit:4;stroke-dasharray:none;paint-order:normal"
       id="path933"
       cx="21.166666"
       cy="21.166666"
       rx="3.1749995"
       ry="3.1749997" />
    <rect
       style="fill:#194dcc;fill-opacity:1;fill-rule:evenodd;stroke:#194dcc;stroke-width:0.26458333;stroke-linecap:round;stroke-linejoin:round;stroke-miterlimit:4;stroke-dasharray:none;paint-order:normal;stroke-opacity:1"
       id="rect942"
       width="23.283333"
       height="5.2916665"
       x="229.65834"
       y="2.1166666"
       ry="1.0583334"
       rx="1.0583323" />
    <rect
       style="fill:#f1f2ff;fill-opacity:1;fill-rule:evenodd;stroke:#194dcc;stroke-width:0.26458333;stroke-linecap:round;stroke-linejoin:round;stroke-miterlimit:4;stroke-dasharray:none;paint-order:normal;stroke-opacity:1"
       id="rect944"
       width="23.283333"
       height="5.2916665"
       x="229.65834"
       y="1.0583333"
       ry="1.0583334"
       rx="1.0583323" />
    <rect
       style="fill:#194dcc;fill-opacity:1;fill-rule:evenodd;stroke:#194dcc;stroke-width:0.264583;stroke-linecap:round;stroke-linejoin:round;stroke-miterlimit:4;stroke-dasharray:none;paint-order:normal;stroke-opacity:1"
       id="rect950"
       width="7.4083343"
       height="6.1736131"
       x="212.19582"
       y="10.230555"
       ry="1.0583334"
       rx="1.0583323" />
    <rect
       style="fill:#f1f2ff;fill-opacity:1;fill-rule:evenodd;stroke:#194dcc;stroke-width:0.264583;stroke-linecap:round;stroke-linejoin:round;stroke-miterlimit:4;stroke-dasharray:none;paint-order:normal;stroke-opacity:1"
       id="rect952"
       width="7.4083343"
       height="6.1736131"
       x="212.19582"
       y="8.9958334"
       ry="1.0583334"
       rx="1.0583323" />
    <rect
       style="fill:#194dcc;fill-opacity:1;fill-rule:evenodd;stroke:#194dcc;stroke-width:0.264583;stroke-linecap:round;stroke-linejoin:round;stroke-miterlimit:4;stroke-dasharray:none;paint-order:normal;stroke-opacity:1"
       id="rect962"
       width="7.4083343"
       height="6.1736131"
       x="212.19582"
       y="1.763887"
       ry="1.0583334"
       rx="1.0583323" />
    <rect
       style="fill:#f1f2ff;fill-opacity:1;fill-rule:evenodd;stroke:#194dcc;stroke-width:0.264583;stroke-linecap:round;stroke-linejoin:round;stroke-miterlimit:4;stroke-dasharray:none;paint-order:normal;stroke-opacity:1"
       id="rect964"
       width="7.4083343"
       height="6.1736131"
       x="212.19582"
       y="0.5291658"
       ry="1.0583334"
       rx="1.0583323" />
    <rect
       style="fill:#194dcc;fill-opacity:1;fill-rule:evenodd;stroke:#194dcc;stroke-width:0.264583;stroke-linecap:round;stroke-linejoin:round;stroke-miterlimit:4;stroke-dasharray:none;paint-order:normal;stroke-opacity:1"
       id="rect966"
       width="7.4083343"
       height="6.1736131"
       x="220.66251"
       y="10.230555"
       ry="1.0583334"
       rx="1.0583323" />
    <rect
       style="fill:#f1f2ff;fill-opacity:1;fill-rule:evenodd;stroke:#194dcc;stroke-width:0.264583;stroke-linecap:round;stroke-linejoin:round;stroke-miterlimit:4;stroke-dasharray:none;paint-order:normal;stroke-opacity:1"
       id="rect968"
       width="7.4083343"
       height="6.1736131"
       x="220.66251"
       y="8.9958334"
       ry="1.0583334"
       rx="1.0583323" />
    <rect
       style="fill:#194dcc;fill-opacity:1;fill-rule:evenodd;stroke:#194dcc;stroke-width:0.264583;stroke-linecap:round;stroke-linejoin:round;stroke-miterlimit:4;stroke-dasharray:none;paint-order:normal;stroke-opacity:1"
       id="rect970"
       width="7.4083343"
       height="6.1736131"
       x="203.72916"
       y="10.230555"
       ry="1.0583334"
       rx="1.0583323" />
    <rect
       style="fill:#f1f2ff;fill-opacity:1;fill-rule:evenodd;stroke:#194dcc;stroke-width:0.264583;stroke-linecap:round;stroke-linejoin:round;stroke-miterlimit:4;stroke-dasharray:none;paint-order:normal;stroke-opacity:1"
       id="rect972"
       width="7.4083343"
       height="6.1736131"
       x="203.72916"
       y="8.9958334"
       ry="1.0583334"
       rx="1.0583323" />
    <path
       style="fill:#194dcc;stroke:none;stroke-width:0.264583px;stroke-linecap:butt;stroke-linejoin:miter;stroke-opacity:1;fill-opacity:1"
       d="m 213.78333,4.2333333 h 4.23333 l -2.11667,-2.1166667 z"
       id="path974" />
    <path
       style="fill:#194dcc;stroke:none;stroke-width:0.264583px;stroke-linecap:butt;stroke-linejoin:miter;stroke-opacity:1;fill-opacity:1"
       d="m 213.78334,11.641667 h 4.23333 L 215.9,13.758333 Z"
       id="path976" />
    <path
       style="fill:#194dcc;stroke:none;stroke-width:0.264583px;stroke-linecap:butt;stroke-linejoin:miter;stroke-opacity:1;fill-opacity:1"
       d="m 208.22708,10.054167 v 4.23333 l -2.11667,-2.11667 z"
       id="path978" />
    <path
       style="fill:#194dcc;stroke:none;stroke-width:0.264583px;stroke-linecap:butt;stroke-linejoin:miter;stroke-opacity:1;fill-opacity:1"
       d="m 223.57291,10.054173 v 4.23333 l 2.11667,-2.11667 z"
       id="path980" />
    <path
       id="path982"
       style="fill:#ffffff;stroke:none;stroke-width:0.264583px;stroke-linecap:butt;stroke-linejoin:miter;stroke-opacity:1"
       d="m 28.178125,19.05 c -0.727604,0.06615 -1.455208,0.661459 -1.455208,1.5875 0,1.852083 2.910416,2.645834 2.910416,3.704167 1e-6,-1.058333 2.910417,-1.852084 2.910417,-3.704167 0,-1.852083 -2.910417,-2.38125 -2.910417,0 0,-1.190625 -0.727604,-1.653646 -1.455208,-1.5875 z"
       sodipodi:nodetypes="sscscs" />
    <path
       style="fill:#ffffff;stroke:none;stroke-width:0.264583px;stroke-linecap:butt;stroke-linejoin:miter;stroke-opacity:1"
       d="m 34.925,21.166666 c 0.79375,0 3.175,-2.381249 3.175,-3.175 0,0.793751 2.38125,3.175 3.174999,3.175 -0.793749,0 -3.174999,2.381251 -3.174999,3.175 0,-0.793749 -2.38125,-3.174999 -3.175,-3.175 z"
       id="path987"
       sodipodi:nodetypes="ccccc" />
    <circle
       style="fill:#ffffff;fill-opacity:1;fill-rule:evenodd;stroke:none;stroke-width:0.132291;stroke-linecap:round;stroke-linejoin:round;stroke-miterlimit:4;stroke-dasharray:none;stroke-opacity:1;paint-order:normal;filter:url(#filter1007)"
       id="path989"
       cx="186.26666"
       cy="16.933332"
       r="7.4083333"
       transform="matrix(2.0000006,0,0,2.0000006,-186.26677,-16.933342)" />
    <path
       id="path888"
       style="fill:#ffffff;stroke:none;stroke-width:0.999999px;stroke-linecap:butt;stroke-linejoin:miter;stroke-opacity:1"
       d="m 176,68 -10,6 10,5 10,-5 z m 10,6 -9.13398,6.499997 L 176,90 186,85 Z M 176,90 175.13397,80.499999 166,74 v 11 z"
       transform="scale(0.26458333)"
       sodipodi:nodetypes="ccccccccccccccc" />
    <path
       sodipodi:type="star"
       style="fill:#ffffff;fill-rule:evenodd;stroke:none;stroke-width:0.264583;stroke-linecap:round;stroke-linejoin:round"
       id="path903"
       sodipodi:sides="3"
       sodipodi:cx="46.566666"
       sodipodi:cy="21.166666"
       sodipodi:r1="0.26458317"
       sodipodi:r2="0.13070408"
       sodipodi:arg1="-1.5707977"
       sodipodi:arg2="-0.52360015"
       inkscape:flatsided="true"
       inkscape:rounded="0"
       inkscape:randomized="0"
       d="m 46.566665,20.902083 0.229137,0.396874 -0.458272,10e-7 z"
       inkscape:transform-center-y="-0.024707831" />
    <path
       style="fill:#ffffff;stroke:#000000;stroke-width:0.264583px;stroke-linecap:butt;stroke-linejoin:miter;stroke-opacity:1"
       d="m 65.0875,13.229167 c 0.79375,0.529166 2.116667,1.5875 2.645833,1.058333 C 68.2625,13.758334 67.204166,12.7 66.939583,12.435417"
       id="path905"
       sodipodi:nodetypes="csc" />
    <path
       style="fill:#ffffff;stroke:#000000;stroke-width:0.264583px;stroke-linecap:butt;stroke-linejoin:miter;stroke-opacity:1"
       d="m 61.9125,4.2333333 c 1.058333,-1.8520833 3.175,-2.38125 5.820833,-2.38125 2.645834,0 2.381251,3.4395834 0.264584,3.4395834"
       id="path907"
       sodipodi:nodetypes="csc" />
    <path
       style="fill:#ffffff;stroke:#000000;stroke-width:0.264583;stroke-linecap:butt;stroke-linejoin:miter;stroke-miterlimit:4;stroke-dasharray:none;stroke-opacity:1"
       d="m 55.033333,8.4666666 c 8.466667,-8.46666996 16.933333,-4.23334 21.166666,0 4.233334,4.2333304 4.233334,4.2333304 4.233334,4.2333304 V 4.2333266 c 0,0 0,0 -4.233334,4.23334 -4.233333,4.2333304 -12.699999,8.4666604 -21.166666,0 z"
       id="path909"
       inkscape:export-xdpi="96"
       inkscape:export-ydpi="96" />
    <path
       id="path912"
       style="fill:#000000;stroke:#000000;stroke-width:0.264583;stroke-linecap:round;stroke-linejoin:round;stroke-miterlimit:4;stroke-dasharray:none;stroke-opacity:1"
       d="m 58.472916,11.1125 c 0.79375,-0.79375 0.79375,-1.058333 0.79375,-2.6458334 0,0 -1.035311,1.0317871 -3.102136,1.0562664"
       sodipodi:nodetypes="ccc" />
    <ellipse
       style="fill:#808080;fill-opacity:1;fill-rule:evenodd;stroke:#000000;stroke-width:0.264583;stroke-miterlimit:4;stroke-dasharray:none;paint-order:normal"
       id="ellipse914"
       cx="59.795834"
       cy="6.8791666"
       rx="0.5291667"
       ry="0.52916664" />
    <path
       style="fill:none;stroke:#000000;stroke-width:0.264583px;stroke-linecap:butt;stroke-linejoin:miter;stroke-opacity:1"
       d="m 64.29375,5.0270833 c 2.116667,2.1166667 2.116667,4.7624997 0,6.8791667"
       id="path916"
       sodipodi:nodetypes="cc" />
    <path
       id="path926"
       style="fill:none;stroke:#000000;stroke-width:0.26499999;stroke-linecap:round;stroke-linejoin:round;stroke-opacity:1;stroke-miterlimit:4;stroke-dasharray:none"
       d="m 65.616667,12.170833 c 1.058333,0 1.5875,-0.529166 0.79375,-1.058333 1.322917,-0.264583 1.058333,-1.058333 0.264583,-1.3229167 0.793754,-0.2645839 1.5875,-1.3229166 0.264583,-1.5875 0.79375,-0.2645833 0.793751,-1.3229166 -0.529167,-1.5875 0.79375,-0.2645834 0.793751,-1.5875 -0.529166,-1.5875"
       sodipodi:nodetypes="cccccc" />
    <path
       id="path939"
       style="fill:none;stroke:#000000;stroke-width:0.265;stroke-linecap:round;stroke-linejoin:round;stroke-miterlimit:4;stroke-dasharray:none;stroke-opacity:1"
       d="m 67.997917,11.641667 c 1.322917,-0.264583 1.310382,-1.183951 0.516632,-1.448535 0.793754,-0.2645834 1.5875,-1.3229161 0.264583,-1.5874995 C 69.572882,8.3410492 69.585418,7.1437501 68.2625,6.8791667 69.05625,6.6145833 69.05625,5.55625 67.720799,5.4306325"
       sodipodi:nodetypes="ccccc" />
    <path
       id="path941"
       style="fill:none;stroke:#000000;stroke-width:0.265;stroke-linecap:round;stroke-linejoin:round;stroke-miterlimit:4;stroke-dasharray:none;stroke-opacity:1"
       d="m 70.114584,11.1125 c 1.322917,-0.264583 1.058333,-1.058333 0.264583,-1.3229167 0.793754,-0.2645839 1.5875,-1.3229166 0.264583,-1.5875 0.79375,-0.2645833 0.793751,-1.3229166 -0.529167,-1.5875"
       sodipodi:nodetypes="cccc" />
    <path
       id="path943"
       style="fill:none;stroke:#000000;stroke-width:0.265;stroke-linecap:round;stroke-linejoin:round;stroke-miterlimit:4;stroke-dasharray:none;stroke-opacity:1"
       d="m 72.052858,10.539485 c 0.793754,-0.264583 1.5875,-1.3229161 0.264583,-1.5874995 0.79375,-0.2645833 0.972143,-1.5436521 -0.350775,-1.8082355"
       sodipodi:nodetypes="ccc" />
    <path
       style="fill:#ffffff;stroke:#000000;stroke-width:0.264583px;stroke-linecap:butt;stroke-linejoin:miter;stroke-opacity:1"
       d="m 98.954166,13.229167 c 0.79375,0.529166 2.116664,1.5875 2.645834,1.058333 0.52917,-0.529166 -0.52917,-1.5875 -0.79375,-1.852083"
       id="path945"
       sodipodi:nodetypes="csc" />
    <path
       style="fill:#ffffff;stroke:#000000;stroke-width:0.264583px;stroke-linecap:butt;stroke-linejoin:miter;stroke-opacity:1"
       d="m 95.779166,4.2333334 c 1.058333,-1.8520833 3.175,-2.38125 5.820834,-2.38125 2.64583,0 2.38125,3.4395834 0.26458,3.4395834"
       id="path947"
       sodipodi:nodetypes="csc" />
    <path
       style="fill:#ffffff;stroke:#000000;stroke-width:0.264583;stroke-linecap:butt;stroke-linejoin:miter;stroke-miterlimit:4;stroke-dasharray:none;stroke-opacity:1"
       d="m 88.899999,8.4666667 c 8.466667,-8.4666699933333 16.933331,-4.23334 21.166671,0 C 114.3,12.699997 114.3,12.699997 114.3,12.699997 V 4.2333267 c 0,0 0,0 -4.23333,4.23334 -4.23334,4.2333303 -12.700004,8.4666603 -21.166671,0 z"
       id="path949"
       inkscape:export-xdpi="96"
       inkscape:export-ydpi="96" />
    <path
       id="path951"
       style="fill:#000000;stroke:#000000;stroke-width:0.264583;stroke-linecap:round;stroke-linejoin:round;stroke-miterlimit:4;stroke-dasharray:none;stroke-opacity:1"
       d="m 92.339583,11.1125 c 0.79375,-0.79375 0.79375,-1.058333 0.79375,-2.6458333 0,0 -1.035312,1.0317871 -3.102136,1.0562664"
       sodipodi:nodetypes="ccc" />
    <ellipse
       style="fill:#808080;fill-opacity:1;fill-rule:evenodd;stroke:#000000;stroke-width:0.264583;stroke-miterlimit:4;stroke-dasharray:none;paint-order:normal"
       id="ellipse953"
       cx="93.662498"
       cy="6.8791666"
       rx="0.5291667"
       ry="0.52916664" />
    <path
       style="fill:none;stroke:#000000;stroke-width:0.264583px;stroke-linecap:butt;stroke-linejoin:miter;stroke-opacity:1"
       d="m 98.160416,5.0270834 c 2.116664,2.1166667 2.116664,4.7624997 0,6.8791666"
       id="path955"
       sodipodi:nodetypes="cc" />
    <path
       style="fill:#ffffff;stroke:#000000;stroke-width:0.264583px;stroke-linecap:butt;stroke-linejoin:miter;stroke-opacity:1"
       d="m 126.85166,15.466197 c 0.79375,0.529166 2.11667,1.5875 2.64584,1.058333 0.52917,-0.529166 -0.52917,-1.5875 -0.79375,-1.852083"
       id="path908"
       sodipodi:nodetypes="csc" />
    <path
       style="fill:#ffffff;stroke:#000000;stroke-width:0.264583px;stroke-linecap:butt;stroke-linejoin:miter;stroke-opacity:1"
       d="m 122.43594,3.8364582 c 1.05834,-1.8520833 3.175,-2.38125 5.82084,-2.38125 2.64583,0 2.38125,3.4395834 0.26458,3.4395834"
       id="path910"
       sodipodi:nodetypes="csc" />
    <path
       style="fill:#ffffff;stroke:#000000;stroke-width:0.264583px;stroke-linecap:butt;stroke-linejoin:miter;stroke-opacity:1"
       d="m 119.59167,10.583333 c -10e-6,3.175 3.175,5.291666 5.29166,5.291667 h 3.175 c 3.175,0 4.23333,-1.058334 4.23333,-4.233333 V 7.4083333 c 0,-3.175 -1.05833,-4.2333333 -4.23333,-4.2333333 H 123.825 c -3.175,0 -4.23333,1.0583333 -4.23333,4.2333333 z"
       id="path924"
       sodipodi:nodetypes="sssssssss" />
    <path
       id="path918"
       style="fill:#000000;stroke:#000000;stroke-width:0.264583;stroke-linecap:round;stroke-linejoin:round;stroke-miterlimit:4;stroke-dasharray:none;stroke-opacity:1"
       d="M 123.03125,15.345833 C 123.825,14.552083 123.825,14.2875 123.825,12.7 c 0,0 -0.96562,1.031787 -3.03245,1.056266 z"
       sodipodi:nodetypes="cccc" />
    <ellipse
       style="fill:#808080;fill-opacity:1;fill-rule:evenodd;stroke:#000000;stroke-width:0.264583;stroke-miterlimit:4;stroke-dasharray:none;paint-order:normal"
       id="ellipse920"
       cx="122.2375"
       cy="8.4666662"
       rx="0.5291667"
       ry="0.52916664" />
    <path
       style="fill:none;stroke:#000000;stroke-width:0.264583px;stroke-linecap:butt;stroke-linejoin:miter;stroke-opacity:1"
       d="m 125.4125,6.085417 c 2.11667,2.1166663 2.11667,4.762499 0,6.879166"
       id="path922"
       sodipodi:nodetypes="cc" />
    <path
       style="color:#000000;font-style:normal;font-variant:normal;font-weight:normal;font-stretch:normal;font-size:medium;line-height:normal;font-family:sans-serif;font-variant-ligatures:normal;font-variant-position:normal;font-variant-caps:normal;font-variant-numeric:normal;font-variant-alternates:normal;font-variant-east-asian:normal;font-feature-settings:normal;font-variation-settings:normal;text-indent:0;text-align:start;text-decoration:none;text-decoration-line:none;text-decoration-style:solid;text-decoration-color:#000000;letter-spacing:normal;word-spacing:normal;text-transform:none;writing-mode:lr-tb;direction:ltr;text-orientation:mixed;dominant-baseline:auto;baseline-shift:baseline;text-anchor:start;white-space:normal;shape-padding:0;shape-margin:0;inline-size:0;clip-rule:nonzero;display:inline;overflow:visible;visibility:visible;isolation:auto;mix-blend-mode:normal;color-interpolation:sRGB;color-interpolation-filters:linearRGB;solid-color:#000000;solid-opacity:1;vector-effect:none;fill:#ffffff;fill-opacity:1;fill-rule:nonzero;stroke:none;stroke-width:0.264583;stroke-linecap:butt;stroke-linejoin:miter;stroke-miterlimit:4;stroke-dasharray:none;stroke-dashoffset:0;stroke-opacity:1;color-rendering:auto;image-rendering:auto;shape-rendering:auto;text-rendering:auto;enable-background:accumulate;stop-color:#000000"
       d="m 4.2333333,21.166667 c 0,0 -0.801037,1.067171 -2.865172,1.175336 1.075378,0.861787 1.914864,1.511188 2.983036,1.732692 l 2.468334,0.05695 c 0,0 -2.257544,-1.389451 -2.321828,-2.975648 z"
       id="path930"
       sodipodi:nodetypes="cccccc"
       inkscape:transform-center-x="0.12156439"
       inkscape:transform-center-y="1.4671235" />
    <path
       style="fill:#01ffe5;fill-opacity:1;stroke:#000000;stroke-width:0.264583px;stroke-linecap:butt;stroke-linejoin:miter;stroke-opacity:1"
       d="m 259.29167,26.458333 c -2.11666,0 -4.23333,-2.116667 -4.23333,-3.175 0,-1.058333 0,7.408333 0,6.35 0,-1.058333 2.11667,-3.175 4.23333,-3.175 z"
       id="path932" />
    <path
       style="fill:#fff30b;fill-opacity:1;stroke:#000000;stroke-width:0.264583px;stroke-linecap:butt;stroke-linejoin:miter;stroke-opacity:1"
       d="m 262.61501,32.39953 c -0.79375,0.529166 -2.11667,1.5875 -2.64584,1.058333 -0.52917,-0.529166 0.52917,-1.5875 0.79375,-1.852083"
       id="path934"
       sodipodi:nodetypes="csc" />
    <path
       style="fill:#82fc00;fill-opacity:1;stroke:#000000;stroke-width:0.264583px;stroke-linecap:butt;stroke-linejoin:miter;stroke-opacity:1"
       d="m 267.03073,20.769791 c -1.05834,-1.852083 -3.175,-2.38125 -5.82084,-2.38125 -2.64583,0 -2.38125,3.439584 -0.26458,3.439584"
       id="path936"
       sodipodi:nodetypes="csc" />
    <path
       style="fill:url(#linearGradient952);fill-opacity:1;stroke:#000000;stroke-width:0.264583px;stroke-linecap:butt;stroke-linejoin:miter;stroke-opacity:1"
       d="m 269.875,27.516666 c 10e-6,3.175 -3.175,5.291666 -5.29166,5.291667 h -3.175 c -3.175,0 -4.23333,-1.058334 -4.23333,-4.233333 v -4.233334 c 0,-3.175 1.05833,-4.233333 4.23333,-4.233333 h 4.23333 c 3.175,0 4.23333,1.058333 4.23333,4.233333 z"
       id="path938"
       sodipodi:nodetypes="sssssssss" />
    <path
       id="path940"
       style="fill:none;stroke:#000000;stroke-width:0.264583;stroke-linecap:round;stroke-linejoin:round;stroke-miterlimit:4;stroke-dasharray:none;stroke-opacity:1"
       d="m 265.64167,29.633333 c 0,0 0.96562,1.031787 3.03245,1.056266"
       sodipodi:nodetypes="cc" />
    <ellipse
       style="fill:#808080;fill-opacity:1;fill-rule:evenodd;stroke:#000000;stroke-width:0.264583;stroke-miterlimit:4;stroke-dasharray:none;paint-order:normal"
       id="ellipse942"
       cx="-267.22919"
       cy="25.4"
       rx="0.5291667"
       ry="0.52916664"
       transform="scale(-1,1)" />
    <path
       style="fill:none;stroke:#000000;stroke-width:0.264583px;stroke-linecap:butt;stroke-linejoin:miter;stroke-opacity:1"
       d="m 264.05417,23.01875 c -2.11667,2.116666 -2.11667,4.762499 0,6.879166"
       id="path944"
       sodipodi:nodetypes="cc" />
  </g>
</svg>
